<svg width="16" height="16" viewBox="0 0 16 16" fill="none" xmlns="http://www.w3.org/2000/svg">
<path d="M14.9969 15.999C6.46589 16.011 -0.0091127 9.45902 -0.0001127 1.00202C-0.0001127 0.449023 0.447887 -0.000976562 0.999887 -0.000976562H3.63989C4.13489 -0.000976562 4.55589 0.363024 4.62889 0.853024C4.80299 2.02808 5.14481 3.17207 5.64389 4.25002L5.74689 4.47202C5.81608 4.62141 5.83096 4.79027 5.78897 4.94946C5.74698 5.10865 5.65076 5.24819 5.51689 5.34402C4.69889 5.92802 4.38689 7.10302 5.02389 8.01902C5.82587 9.17235 6.82683 10.1736 7.97989 10.976C8.89689 11.612 10.0719 11.3 10.6549 10.483C10.7506 10.3488 10.8903 10.2522 11.0497 10.21C11.2091 10.1678 11.3783 10.1827 11.5279 10.252L11.7489 10.354C12.8269 10.854 13.9709 11.196 15.1459 11.37C15.6359 11.443 15.9999 11.864 15.9999 12.36V14.999C15.9999 15.1304 15.974 15.2605 15.9237 15.3819C15.8734 15.5033 15.7996 15.6136 15.7066 15.7065C15.6137 15.7994 15.5033 15.873 15.3819 15.9232C15.2604 15.9734 15.1303 15.9992 14.9989 15.999H14.9969Z" fill="#808080"/>
</svg>
