<svg width="20" height="19" viewBox="0 0 20 19" fill="none" xmlns="http://www.w3.org/2000/svg">
<g clip-path="url(#clip0_354_42)">
<path d="M17.8666 8.48654L4.96662 2.35904C4.7926 2.28244 4.60117 2.24841 4.40976 2.26004C4.21835 2.27168 4.03305 2.3286 3.87071 2.42565C3.70838 2.52269 3.57417 2.65676 3.48031 2.81566C3.38644 2.97456 3.3359 3.15323 3.33329 3.33543V15.5851C3.33167 15.7722 3.38085 15.9564 3.4761 16.1201C3.57134 16.2838 3.70942 16.4214 3.87699 16.5195C4.04456 16.6177 4.23595 16.6731 4.43267 16.6805C4.62939 16.6879 4.82478 16.6469 4.99996 16.5615L17.8666 10.434C18.0572 10.3431 18.2175 10.2037 18.3294 10.0313C18.4414 9.85885 18.5007 9.66024 18.5007 9.45765C18.5007 9.25505 18.4414 9.05644 18.3294 8.88402C18.2175 8.7116 18.0572 8.57215 17.8666 8.48126V8.48654Z" fill="white"/>
</g>
<defs>
<clipPath id="clip0_354_42">
<rect width="20" height="19" fill="white"/>
</clipPath>
</defs>
</svg>
